<svg width="53" height="53" viewBox="0 0 53 53" fill="none" xmlns="http://www.w3.org/2000/svg">
<g id="solar:star-bold">
<path id="Vector" d="M19.0493 15.4243C20.6892 10.8306 21.5082 8.53392 23.2594 8.24082C25.0107 7.94771 26.5329 9.85257 29.5791 13.662L30.3677 14.6478C31.2334 15.7311 31.6662 16.2727 32.2499 16.5799C32.8336 16.8871 33.5053 16.9249 34.8487 17.0004L36.0695 17.0699C40.7911 17.3385 43.1499 17.4722 43.983 19.1217C44.8139 20.7697 43.5678 22.8432 41.0735 26.9887L40.4279 28.0606C39.72 29.238 39.3644 29.8279 39.273 30.4971C39.1819 31.1683 39.3636 31.845 39.7267 33.1968L40.0583 34.4283C41.3361 39.1896 41.9758 41.5691 40.7391 42.8806C39.5027 44.194 37.208 43.5686 32.6229 42.3208L31.434 41.9989C30.1311 41.6428 29.48 41.4667 28.8383 41.5741C28.1966 41.6815 27.6383 42.0601 26.5224 42.821L25.505 43.5121C21.5742 46.1852 19.6079 47.5218 18.0136 46.686C16.4151 45.8471 16.2451 43.389 15.903 38.4711L15.8158 37.2006C15.7187 35.8024 15.6702 35.1033 15.364 34.5006C15.0612 33.8954 14.5328 33.4534 13.4805 32.5726L12.5207 31.7675C8.81279 28.6619 6.95947 27.1072 7.20821 25.2766C7.45881 23.4457 9.64706 22.5491 14.0242 20.7595L15.1558 20.2964C16.3995 19.7878 17.0205 19.5337 17.4742 19.0529C17.9261 18.5723 18.159 17.9193 18.6248 16.6132L19.0493 15.4243Z" fill="white"/>
</g>
</svg>
