<svg width="24" height="24" viewBox="0 0 24 24" fill="none" xmlns="http://www.w3.org/2000/svg">
<g id="octicon:pencil-24">
<path id="Vector" d="M17.263 2.177C17.5911 1.84908 18.0361 1.66487 18.5 1.66487C18.9639 1.66487 19.4088 1.84908 19.737 2.177L22.323 4.763C22.6509 5.09115 22.8351 5.53608 22.8351 6C22.8351 6.46391 22.6509 6.90884 22.323 7.237L19.53 10.03L19.518 10.043L8.68999 20.378C8.49211 20.567 8.25272 20.7071 7.99099 20.787L2.46799 22.467C2.33814 22.5064 2.20002 22.5097 2.06843 22.4765C1.93684 22.4434 1.81674 22.3751 1.72099 22.279C1.62485 22.1832 1.55656 22.0631 1.52344 21.9316C1.49033 21.8 1.49363 21.6619 1.53299 21.532L3.20599 16.032C3.29374 15.7441 3.45424 15.4837 3.67199 15.276L14.476 4.963L17.263 2.177ZM4.70799 16.361C4.67707 16.3909 4.65405 16.428 4.64099 16.469L3.37699 20.623L7.55399 19.352C7.59145 19.3403 7.62568 19.3202 7.65399 19.293L17.927 9.487L14.987 6.548L4.70799 16.361ZM19 8.44L21.263 6.178C21.2863 6.15477 21.3047 6.12719 21.3173 6.09681C21.33 6.06644 21.3364 6.03388 21.3364 6.001C21.3364 5.96811 21.33 5.93555 21.3173 5.90518C21.3047 5.87481 21.2863 5.84722 21.263 5.824L18.677 3.238C18.6538 3.21472 18.6262 3.19624 18.5958 3.18364C18.5654 3.17104 18.5329 3.16455 18.5 3.16455C18.4671 3.16455 18.4345 3.17104 18.4042 3.18364C18.3738 3.19624 18.3462 3.21472 18.323 3.238L16.061 5.5L19 8.44Z" fill="#F8F8F8"/>
</g>
</svg>
