<svg width="69" height="69" viewBox="0 0 69 69" fill="none" xmlns="http://www.w3.org/2000/svg">
<g id="fluent:arrow-reply-16-filled">
<path id="Vector" d="M21.9979 30.6329L31.6109 25.3536C32.1824 25.0408 32.6142 24.5233 32.8196 23.905C33.025 23.2868 32.9888 22.6137 32.7181 22.0211C32.4475 21.4285 31.9625 20.9604 31.3608 20.7108C30.759 20.4612 30.0851 20.4486 29.4745 20.6757L29.1271 20.8359L14.0609 29.1072L13.7596 29.306L13.5719 29.459L13.3156 29.7245L13.1183 29.9965L13.0045 30.2032L12.9119 30.3982L12.8117 30.7056L12.7683 30.9042L12.7275 31.2288L12.7305 31.5877L12.7915 31.9563L12.8542 32.1715C12.903 32.3229 12.9659 32.4694 13.0418 32.6091L12.8933 32.2831C12.9352 32.3951 12.9848 32.504 13.0418 32.6091L21.3174 47.673C21.632 48.2405 22.149 48.6686 22.7653 48.8717C23.3815 49.0748 24.0517 49.0381 24.6421 48.7688C25.2325 48.4996 25.6997 48.0176 25.9503 47.419C26.201 46.8205 26.2167 46.1495 25.9944 45.5399L25.8374 45.1935L20.5572 35.5838L32.7364 39.128C44.7868 42.6347 54.9705 38.1624 58.1898 28.5021L58.4076 27.803C58.5986 27.1464 58.5211 26.4409 58.1919 25.8416C57.8628 25.2422 57.309 24.7982 56.6525 24.6072C55.996 24.4161 55.2905 24.4937 54.6911 24.8228C54.0918 25.152 53.6478 25.7057 53.4567 26.3622C51.4128 33.3859 44.3587 36.8106 35.0292 34.4107L34.1771 34.1771L21.9979 30.6329Z" fill="white"/>
</g>
</svg>
