<svg width="51" height="50" viewBox="0 0 51 50" fill="none" xmlns="http://www.w3.org/2000/svg">
<g id="mdi:cellphone" clip-path="url(#clip0_17_46)">
<path id="Vector" d="M36.2835 37.1931L17.6416 39.204L14.8264 13.1054L33.4682 11.0945M32.6639 3.63778L14.022 5.64866C11.9528 5.87187 10.4726 7.70997 10.6958 9.77921L14.3154 43.3346C14.4221 44.3234 14.9172 45.2293 15.6918 45.8531C16.4664 46.4769 17.4571 46.7674 18.446 46.6607L37.0878 44.6499C38.0767 44.5432 38.9826 44.0481 39.6064 43.2735C40.2302 42.4988 40.5207 41.5081 40.414 40.5193L36.7944 6.96397C36.6878 5.97514 36.1926 5.06919 35.418 4.44541C34.6434 3.82163 33.6527 3.53111 32.6639 3.63778Z" fill="white"/>
</g>
<defs>
<clipPath id="clip0_17_46">
<rect width="45" height="45" fill="white" transform="translate(0.771622 5.19211) rotate(-6.15667)"/>
</clipPath>
</defs>
</svg>
